<svg width="30" height="36" viewBox="0 0 30 36" fill="none" xmlns="http://www.w3.org/2000/svg">
<path d="M35.4141 34.0003C36.1951 33.2193 36.1951 31.953 35.4141 31.1719L22.2426 18.0004L35.4144 4.82861C36.1954 4.04756 36.1954 2.78123 35.4144 2.00018L34.0006 0.586364C33.2195 -0.194684 31.9532 -0.194685 31.1721 0.586364L18.0003 13.7582L4.82852 0.586275C4.04747 -0.194774 2.78114 -0.194774 2.00009 0.586275L0.586275 2.00009C-0.194774 2.78114 -0.194774 4.04747 0.586274 4.82852L13.7581 18.0004L0.587003 31.1716C-0.194046 31.9526 -0.194045 33.219 0.587004 34L2.00082 35.4138C2.78187 36.1949 4.0482 36.1949 4.82925 35.4138L18.0003 22.2427L31.1718 35.4141C31.9529 36.1952 33.2192 36.1952 34.0002 35.4141L35.4141 34.0003Z" fill="#F59B84"/>
</svg>
