<svg width="48" height="48" viewBox="0 0 48 48" fill="none" xmlns="http://www.w3.org/2000/svg">
<path d="M0 17.0667C0 11.0928 0 8.10583 1.1626 5.8241C2.18525 3.81704 3.81704 2.18525 5.8241 1.1626C8.10583 0 11.0928 0 17.0667 0H30.9333C36.9072 0 39.8942 0 42.1759 1.1626C44.183 2.18525 45.8148 3.81704 46.8374 5.8241C48 8.10583 48 11.0928 48 17.0667V30.9333C48 36.9072 48 39.8942 46.8374 42.1759C45.8148 44.183 44.183 45.8148 42.1759 46.8374C39.8942 48 36.9072 48 30.9333 48H17.0667C11.0928 48 8.10583 48 5.8241 46.8374C3.81704 45.8148 2.18525 44.183 1.1626 42.1759C0 39.8942 0 36.9072 0 30.9333V17.0667Z" fill="#DDDBDC"/>
<g filter="url(#filter0_bii)">
<path d="M0 17.0667C0 11.0928 0 8.10583 1.1626 5.8241C2.18525 3.81704 3.81704 2.18525 5.8241 1.1626C8.10583 0 11.0928 0 17.0667 0H30.9333C36.9072 0 39.8942 0 42.1759 1.1626C44.183 2.18525 45.8148 3.81704 46.8374 5.8241C48 8.10583 48 11.0928 48 17.0667V30.9333C48 36.9072 48 39.8942 46.8374 42.1759C45.8148 44.183 44.183 45.8148 42.1759 46.8374C39.8942 48 36.9072 48 30.9333 48H17.0667C11.0928 48 8.10583 48 5.8241 46.8374C3.81704 45.8148 2.18525 44.183 1.1626 42.1759C0 39.8942 0 36.9072 0 30.9333V17.0667Z" fill="#F6F4F5" fill-opacity="0.13"/>
</g>
<path fill-rule="evenodd" clip-rule="evenodd" d="M13.0392 18.33C11.9506 17.2413 12.4487 15.3824 13.9358 14.9839L36.6539 8.89658C38.1411 8.4981 39.5019 9.85893 39.1034 11.3461L33.0161 34.0642C32.6176 35.5514 30.7587 36.0495 29.6701 34.9608L24.6334 29.9241C23.8523 29.1431 22.586 29.1431 21.805 29.9241L13.1433 38.5858C12.3622 39.3668 11.0959 39.3668 10.3149 38.5858L9.41421 37.6851C8.63317 36.9041 8.63316 35.6378 9.41421 34.8567L18.0759 26.1951C18.8569 25.414 18.8569 24.1477 18.0759 23.3666L13.0392 18.33Z" fill="#3454D1"/>
<g filter="url(#filter1_bii)">
<path d="M33.4327 14.5673C38.002 9.99796 40.2867 7.71329 42.2482 7.55892C43.9502 7.42497 45.6134 8.1139 46.7222 9.41209C48 10.9082 48 14.1393 48 20.6013V30.9333C48 36.9072 48 39.8942 46.8374 42.1759C45.8148 44.183 44.183 45.8148 42.1759 46.8374C39.8942 48 36.9072 48 30.9333 48H20.6013C14.1393 48 10.9082 48 9.41208 46.7222C8.1139 45.6134 7.42496 43.9502 7.55891 42.2482C7.71329 40.2867 9.99796 38.002 14.5673 33.4327L33.4327 14.5673Z" fill="#F6F4F5" fill-opacity="0.2"/>
</g>
<defs>
<filter id="filter0_bii" x="-16" y="-16" width="80" height="80" filterUnits="userSpaceOnUse" color-interpolation-filters="sRGB">
<feFlood flood-opacity="0" result="BackgroundImageFix"/>
<feGaussianBlur in="BackgroundImage" stdDeviation="8"/>
<feComposite in2="SourceAlpha" operator="in" result="effect1_backgroundBlur"/>
<feBlend mode="normal" in="SourceGraphic" in2="effect1_backgroundBlur" result="shape"/>
<feColorMatrix in="SourceAlpha" type="matrix" values="0 0 0 0 0 0 0 0 0 0 0 0 0 0 0 0 0 0 127 0" result="hardAlpha"/>
<feOffset dx="1" dy="4"/>
<feGaussianBlur stdDeviation="2"/>
<feComposite in2="hardAlpha" operator="arithmetic" k2="-1" k3="1"/>
<feColorMatrix type="matrix" values="0 0 0 0 1 0 0 0 0 1 0 0 0 0 1 0 0 0 0.25 0"/>
<feBlend mode="normal" in2="shape" result="effect2_innerShadow"/>
<feColorMatrix in="SourceAlpha" type="matrix" values="0 0 0 0 0 0 0 0 0 0 0 0 0 0 0 0 0 0 127 0" result="hardAlpha"/>
<feOffset/>
<feGaussianBlur stdDeviation="34"/>
<feComposite in2="hardAlpha" operator="arithmetic" k2="-1" k3="1"/>
<feColorMatrix type="matrix" values="0 0 0 0 1 0 0 0 0 1 0 0 0 0 1 0 0 0 0.05 0"/>
<feBlend mode="normal" in2="effect2_innerShadow" result="effect3_innerShadow"/>
</filter>
<filter id="filter1_bii" x="-0.457558" y="-0.45755" width="56.4576" height="56.4576" filterUnits="userSpaceOnUse" color-interpolation-filters="sRGB">
<feFlood flood-opacity="0" result="BackgroundImageFix"/>
<feGaussianBlur in="BackgroundImage" stdDeviation="4"/>
<feComposite in2="SourceAlpha" operator="in" result="effect1_backgroundBlur"/>
<feBlend mode="normal" in="SourceGraphic" in2="effect1_backgroundBlur" result="shape"/>
<feColorMatrix in="SourceAlpha" type="matrix" values="0 0 0 0 0 0 0 0 0 0 0 0 0 0 0 0 0 0 127 0" result="hardAlpha"/>
<feOffset dx="-3" dy="4"/>
<feGaussianBlur stdDeviation="2"/>
<feComposite in2="hardAlpha" operator="arithmetic" k2="-1" k3="1"/>
<feColorMatrix type="matrix" values="0 0 0 0 1 0 0 0 0 1 0 0 0 0 1 0 0 0 0.25 0"/>
<feBlend mode="normal" in2="shape" result="effect2_innerShadow"/>
<feColorMatrix in="SourceAlpha" type="matrix" values="0 0 0 0 0 0 0 0 0 0 0 0 0 0 0 0 0 0 127 0" result="hardAlpha"/>
<feOffset/>
<feGaussianBlur stdDeviation="34"/>
<feComposite in2="hardAlpha" operator="arithmetic" k2="-1" k3="1"/>
<feColorMatrix type="matrix" values="0 0 0 0 1 0 0 0 0 1 0 0 0 0 1 0 0 0 0.05 0"/>
<feBlend mode="normal" in2="effect2_innerShadow" result="effect3_innerShadow"/>
</filter>
</defs>
</svg>
