<svg width="30" height="36" viewBox="0 0 30 36" fill="none" xmlns="http://www.w3.org/2000/svg">
<path d="M35.4138 34.0003C36.1949 33.2192 36.1949 31.9529 35.4138 31.1718L22.2423 18.0004L35.4141 4.82854C36.1952 4.0475 36.1952 2.78117 35.4141 2.00012L34.0003 0.586303C33.2193 -0.194745 31.953 -0.194746 31.1719 0.586303L18.0001 13.7581L4.82827 0.586214C4.04722 -0.194835 2.78089 -0.194835 1.99985 0.586214L0.586031 2.00003C-0.195018 2.78108 -0.195018 4.04741 0.58603 4.82846L13.7578 18.0004L0.586759 31.1715C-0.19429 31.9526 -0.194289 33.2189 0.58676 33.9999L2.00057 35.4138C2.78162 36.1948 4.04795 36.1948 4.829 35.4138L18.0001 22.2426L31.1716 35.4141C31.9526 36.1951 33.219 36.1951 34 35.4141L35.4138 34.0003Z" fill="#C4C2C4"/>
</svg>
